<?xml version="1.0" standalone="no"?>
<!DOCTYPE svg PUBLIC "-//W3C//DTD SVG 20010904//EN"
 "http://www.w3.org/TR/2001/REC-SVG-20010904/DTD/svg10.dtd">
<svg version="1.0" xmlns="http://www.w3.org/2000/svg"
 width="16.000000pt" height="16.000000pt" viewBox="0 0 16.000000 16.000000"
 preserveAspectRatio="xMidYMid meet">
<metadata>
Created by potrace 1.11, written by Peter Selinger 2001-2013
</metadata>
<g transform="translate(0.000000,16.000000) scale(0.009639,-0.009639)"
fill="#000000" stroke="none">
<path d="M396 1565 c-21 -7 -51 -26 -67 -41 -30 -28 -59 -105 -59 -154 0 -54
32 -131 76 -186 37 -45 43 -58 33 -70 -7 -9 -8 -14 -1 -14 6 0 12 5 14 11 8
23 79 -36 198 -164 288 -310 860 -857 895 -857 30 0 21 21 -36 79 -8 9 -70 78
-137 153 -177 198 -446 466 -711 708 -46 41 -89 89 -96 107 -12 29 -81 103
-96 103 -10 0 -40 48 -45 73 -34 155 98 225 276 147 138 -61 233 -49 270 32
20 44 26 88 12 88 -4 0 -16 -19 -27 -42 -17 -34 -29 -46 -63 -58 -52 -18 -96
-8 -217 51 -94 46 -157 55 -219 34z m136 -25 c21 -6 40 -16 44 -21 4 -8 -1 -9
-17 -3 -37 12 -98 5 -138 -15 -65 -33 -90 -80 -86 -156 2 -28 1 -44 -2 -37 -7
19 -23 14 -17 -5 4 -14 3 -14 -7 2 -18 29 -13 118 10 163 34 67 123 97 213 72z"/>
<path d="M475 1210 c-3 -5 -1 -10 4 -10 6 0 11 5 11 10 0 6 -2 10 -4 10 -3 0
-8 -4 -11 -10z"/>
</g>
</svg>
